<mxfile host="app.diagrams.net" agent="Mozilla/5.0 (X11; Linux x86_64; rv:126.0) Gecko/20100101 Firefox/126.0" version="24.7.17">
  <diagram name="Page-1" id="KfccHBgPzF80LpU69QDz">
    <mxGraphModel dx="2764" dy="1027" grid="1" gridSize="10" guides="1" tooltips="1" connect="1" arrows="1" fold="1" page="1" pageScale="1" pageWidth="850" pageHeight="1100" math="0" shadow="0">
      <root>
        <mxCell id="0" />
        <mxCell id="1" parent="0" />
        <mxCell id="wluxJrqz4NRpJEGgYyN2-7" style="rounded=0;orthogonalLoop=1;jettySize=auto;html=1;exitX=1;exitY=0.5;exitDx=0;exitDy=0;endArrow=none;endFill=0;" edge="1" parent="1" source="wluxJrqz4NRpJEGgYyN2-1" target="wluxJrqz4NRpJEGgYyN2-6">
          <mxGeometry relative="1" as="geometry" />
        </mxCell>
        <mxCell id="wluxJrqz4NRpJEGgYyN2-1" value="User" style="rounded=0;whiteSpace=wrap;html=1;" vertex="1" parent="1">
          <mxGeometry x="90" y="250" width="120" height="60" as="geometry" />
        </mxCell>
        <mxCell id="wluxJrqz4NRpJEGgYyN2-10" style="edgeStyle=none;shape=connector;rounded=0;orthogonalLoop=1;jettySize=auto;html=1;exitX=1;exitY=0.5;exitDx=0;exitDy=0;strokeColor=default;align=center;verticalAlign=middle;fontFamily=Helvetica;fontSize=11;fontColor=default;labelBackgroundColor=default;endArrow=none;endFill=0;" edge="1" parent="1" source="wluxJrqz4NRpJEGgYyN2-2" target="wluxJrqz4NRpJEGgYyN2-9">
          <mxGeometry relative="1" as="geometry" />
        </mxCell>
        <mxCell id="wluxJrqz4NRpJEGgYyN2-13" style="edgeStyle=none;shape=connector;rounded=0;orthogonalLoop=1;jettySize=auto;html=1;exitX=0.5;exitY=1;exitDx=0;exitDy=0;strokeColor=default;align=center;verticalAlign=middle;fontFamily=Helvetica;fontSize=11;fontColor=default;labelBackgroundColor=default;endArrow=none;endFill=0;" edge="1" parent="1" source="wluxJrqz4NRpJEGgYyN2-2" target="wluxJrqz4NRpJEGgYyN2-12">
          <mxGeometry relative="1" as="geometry" />
        </mxCell>
        <mxCell id="wluxJrqz4NRpJEGgYyN2-2" value="Profile" style="rounded=0;whiteSpace=wrap;html=1;" vertex="1" parent="1">
          <mxGeometry x="500" y="250" width="120" height="60" as="geometry" />
        </mxCell>
        <mxCell id="wluxJrqz4NRpJEGgYyN2-11" style="edgeStyle=none;shape=connector;rounded=0;orthogonalLoop=1;jettySize=auto;html=1;exitX=0;exitY=0.5;exitDx=0;exitDy=0;strokeColor=default;align=center;verticalAlign=middle;fontFamily=Helvetica;fontSize=11;fontColor=default;labelBackgroundColor=default;endArrow=none;endFill=0;" edge="1" parent="1" source="wluxJrqz4NRpJEGgYyN2-3" target="wluxJrqz4NRpJEGgYyN2-9">
          <mxGeometry relative="1" as="geometry" />
        </mxCell>
        <mxCell id="wluxJrqz4NRpJEGgYyN2-44" style="edgeStyle=none;shape=connector;rounded=0;orthogonalLoop=1;jettySize=auto;html=1;exitX=0.5;exitY=1;exitDx=0;exitDy=0;entryX=0.5;entryY=0;entryDx=0;entryDy=0;strokeColor=default;align=center;verticalAlign=middle;fontFamily=Helvetica;fontSize=11;fontColor=default;labelBackgroundColor=default;endArrow=none;endFill=0;" edge="1" parent="1" source="wluxJrqz4NRpJEGgYyN2-3" target="wluxJrqz4NRpJEGgYyN2-43">
          <mxGeometry relative="1" as="geometry" />
        </mxCell>
        <mxCell id="wluxJrqz4NRpJEGgYyN2-45" style="edgeStyle=none;shape=connector;rounded=0;orthogonalLoop=1;jettySize=auto;html=1;exitX=1;exitY=0.5;exitDx=0;exitDy=0;strokeColor=default;align=center;verticalAlign=middle;fontFamily=Helvetica;fontSize=11;fontColor=default;labelBackgroundColor=default;endArrow=none;endFill=0;" edge="1" parent="1" source="wluxJrqz4NRpJEGgYyN2-3" target="wluxJrqz4NRpJEGgYyN2-42">
          <mxGeometry relative="1" as="geometry" />
        </mxCell>
        <mxCell id="wluxJrqz4NRpJEGgYyN2-46" style="edgeStyle=none;shape=connector;rounded=0;orthogonalLoop=1;jettySize=auto;html=1;exitX=0.5;exitY=0;exitDx=0;exitDy=0;strokeColor=default;align=center;verticalAlign=middle;fontFamily=Helvetica;fontSize=11;fontColor=default;labelBackgroundColor=default;endArrow=none;endFill=0;" edge="1" parent="1" source="wluxJrqz4NRpJEGgYyN2-3" target="wluxJrqz4NRpJEGgYyN2-41">
          <mxGeometry relative="1" as="geometry" />
        </mxCell>
        <mxCell id="wluxJrqz4NRpJEGgYyN2-3" value="Kot" style="rounded=0;whiteSpace=wrap;html=1;" vertex="1" parent="1">
          <mxGeometry x="910" y="250" width="120" height="60" as="geometry" />
        </mxCell>
        <mxCell id="wluxJrqz4NRpJEGgYyN2-16" style="edgeStyle=none;shape=connector;rounded=0;orthogonalLoop=1;jettySize=auto;html=1;exitX=1;exitY=0.5;exitDx=0;exitDy=0;strokeColor=default;align=center;verticalAlign=middle;fontFamily=Helvetica;fontSize=11;fontColor=default;labelBackgroundColor=default;endArrow=none;endFill=0;" edge="1" parent="1" source="wluxJrqz4NRpJEGgYyN2-4" target="wluxJrqz4NRpJEGgYyN2-15">
          <mxGeometry relative="1" as="geometry" />
        </mxCell>
        <mxCell id="wluxJrqz4NRpJEGgYyN2-4" value="Post" style="rounded=0;whiteSpace=wrap;html=1;" vertex="1" parent="1">
          <mxGeometry x="500" y="560" width="120" height="60" as="geometry" />
        </mxCell>
        <mxCell id="wluxJrqz4NRpJEGgYyN2-52" style="edgeStyle=none;shape=connector;rounded=0;orthogonalLoop=1;jettySize=auto;html=1;exitX=0.5;exitY=1;exitDx=0;exitDy=0;strokeColor=default;align=center;verticalAlign=middle;fontFamily=Helvetica;fontSize=11;fontColor=default;labelBackgroundColor=default;endArrow=none;endFill=0;" edge="1" parent="1" source="wluxJrqz4NRpJEGgYyN2-5" target="wluxJrqz4NRpJEGgYyN2-51">
          <mxGeometry relative="1" as="geometry" />
        </mxCell>
        <mxCell id="wluxJrqz4NRpJEGgYyN2-5" value="Comment" style="rounded=0;whiteSpace=wrap;html=1;" vertex="1" parent="1">
          <mxGeometry x="990" y="560" width="120" height="60" as="geometry" />
        </mxCell>
        <mxCell id="wluxJrqz4NRpJEGgYyN2-8" style="edgeStyle=none;shape=connector;rounded=0;orthogonalLoop=1;jettySize=auto;html=1;exitX=1;exitY=0.5;exitDx=0;exitDy=0;strokeColor=default;align=center;verticalAlign=middle;fontFamily=Helvetica;fontSize=11;fontColor=default;labelBackgroundColor=default;endArrow=none;endFill=0;" edge="1" parent="1" source="wluxJrqz4NRpJEGgYyN2-6" target="wluxJrqz4NRpJEGgYyN2-2">
          <mxGeometry relative="1" as="geometry" />
        </mxCell>
        <mxCell id="wluxJrqz4NRpJEGgYyN2-6" value="Has" style="rhombus;whiteSpace=wrap;html=1;" vertex="1" parent="1">
          <mxGeometry x="300" y="250" width="100" height="60" as="geometry" />
        </mxCell>
        <mxCell id="wluxJrqz4NRpJEGgYyN2-9" value="Belongs To" style="rhombus;whiteSpace=wrap;html=1;" vertex="1" parent="1">
          <mxGeometry x="720" y="250" width="100" height="60" as="geometry" />
        </mxCell>
        <mxCell id="wluxJrqz4NRpJEGgYyN2-14" style="edgeStyle=none;shape=connector;rounded=0;orthogonalLoop=1;jettySize=auto;html=1;exitX=0.5;exitY=1;exitDx=0;exitDy=0;strokeColor=default;align=center;verticalAlign=middle;fontFamily=Helvetica;fontSize=11;fontColor=default;labelBackgroundColor=default;endArrow=none;endFill=0;" edge="1" parent="1" source="wluxJrqz4NRpJEGgYyN2-12" target="wluxJrqz4NRpJEGgYyN2-4">
          <mxGeometry relative="1" as="geometry" />
        </mxCell>
        <mxCell id="wluxJrqz4NRpJEGgYyN2-12" value="Makes" style="rhombus;whiteSpace=wrap;html=1;" vertex="1" parent="1">
          <mxGeometry x="510" y="410" width="100" height="60" as="geometry" />
        </mxCell>
        <mxCell id="wluxJrqz4NRpJEGgYyN2-17" style="edgeStyle=none;shape=connector;rounded=0;orthogonalLoop=1;jettySize=auto;html=1;exitX=1;exitY=0.5;exitDx=0;exitDy=0;strokeColor=default;align=center;verticalAlign=middle;fontFamily=Helvetica;fontSize=11;fontColor=default;labelBackgroundColor=default;endArrow=none;endFill=0;" edge="1" parent="1" source="wluxJrqz4NRpJEGgYyN2-15" target="wluxJrqz4NRpJEGgYyN2-5">
          <mxGeometry relative="1" as="geometry" />
        </mxCell>
        <mxCell id="wluxJrqz4NRpJEGgYyN2-15" value="Has" style="rhombus;whiteSpace=wrap;html=1;" vertex="1" parent="1">
          <mxGeometry x="760" y="560" width="100" height="60" as="geometry" />
        </mxCell>
        <mxCell id="wluxJrqz4NRpJEGgYyN2-18" value="(1, 1)" style="text;html=1;align=center;verticalAlign=middle;whiteSpace=wrap;rounded=0;fontFamily=Helvetica;fontSize=11;fontColor=default;labelBackgroundColor=default;" vertex="1" parent="1">
          <mxGeometry x="210" y="250" width="60" height="30" as="geometry" />
        </mxCell>
        <mxCell id="wluxJrqz4NRpJEGgYyN2-19" value="(1, 1)" style="text;html=1;align=center;verticalAlign=middle;whiteSpace=wrap;rounded=0;fontFamily=Helvetica;fontSize=11;fontColor=default;labelBackgroundColor=default;" vertex="1" parent="1">
          <mxGeometry x="440" y="250" width="60" height="30" as="geometry" />
        </mxCell>
        <mxCell id="wluxJrqz4NRpJEGgYyN2-20" value="(1, 1)" style="text;html=1;align=center;verticalAlign=middle;whiteSpace=wrap;rounded=0;fontFamily=Helvetica;fontSize=11;fontColor=default;labelBackgroundColor=default;" vertex="1" parent="1">
          <mxGeometry x="560" y="310" width="60" height="30" as="geometry" />
        </mxCell>
        <mxCell id="wluxJrqz4NRpJEGgYyN2-21" value="(1, 1)" style="text;html=1;align=center;verticalAlign=middle;whiteSpace=wrap;rounded=0;fontFamily=Helvetica;fontSize=11;fontColor=default;labelBackgroundColor=default;" vertex="1" parent="1">
          <mxGeometry x="620" y="560" width="60" height="30" as="geometry" />
        </mxCell>
        <mxCell id="wluxJrqz4NRpJEGgYyN2-22" value="(0, n)" style="text;html=1;align=center;verticalAlign=middle;whiteSpace=wrap;rounded=0;fontFamily=Helvetica;fontSize=11;fontColor=default;labelBackgroundColor=default;" vertex="1" parent="1">
          <mxGeometry x="930" y="560" width="60" height="30" as="geometry" />
        </mxCell>
        <mxCell id="wluxJrqz4NRpJEGgYyN2-23" value="(0, n)" style="text;html=1;align=center;verticalAlign=middle;whiteSpace=wrap;rounded=0;fontFamily=Helvetica;fontSize=11;fontColor=default;labelBackgroundColor=default;" vertex="1" parent="1">
          <mxGeometry x="850" y="250" width="60" height="30" as="geometry" />
        </mxCell>
        <mxCell id="wluxJrqz4NRpJEGgYyN2-24" value="(1, n)" style="text;html=1;align=center;verticalAlign=middle;whiteSpace=wrap;rounded=0;fontFamily=Helvetica;fontSize=11;fontColor=default;labelBackgroundColor=default;" vertex="1" parent="1">
          <mxGeometry x="620" y="250" width="60" height="30" as="geometry" />
        </mxCell>
        <mxCell id="wluxJrqz4NRpJEGgYyN2-25" value="(0, n)" style="text;html=1;align=center;verticalAlign=middle;whiteSpace=wrap;rounded=0;fontFamily=Helvetica;fontSize=11;fontColor=default;labelBackgroundColor=default;" vertex="1" parent="1">
          <mxGeometry x="560" y="530" width="60" height="30" as="geometry" />
        </mxCell>
        <mxCell id="wluxJrqz4NRpJEGgYyN2-29" style="edgeStyle=none;shape=connector;rounded=0;orthogonalLoop=1;jettySize=auto;html=1;exitX=0.5;exitY=1;exitDx=0;exitDy=0;strokeColor=default;align=center;verticalAlign=middle;fontFamily=Helvetica;fontSize=11;fontColor=default;labelBackgroundColor=default;endArrow=none;endFill=0;" edge="1" parent="1" source="wluxJrqz4NRpJEGgYyN2-26" target="wluxJrqz4NRpJEGgYyN2-1">
          <mxGeometry relative="1" as="geometry" />
        </mxCell>
        <mxCell id="wluxJrqz4NRpJEGgYyN2-26" value="Email" style="ellipse;whiteSpace=wrap;html=1;fontFamily=Helvetica;fontSize=11;fontColor=default;labelBackgroundColor=default;" vertex="1" parent="1">
          <mxGeometry x="105" y="170" width="90" height="40" as="geometry" />
        </mxCell>
        <mxCell id="wluxJrqz4NRpJEGgYyN2-30" style="edgeStyle=none;shape=connector;rounded=0;orthogonalLoop=1;jettySize=auto;html=1;exitX=1;exitY=0.5;exitDx=0;exitDy=0;strokeColor=default;align=center;verticalAlign=middle;fontFamily=Helvetica;fontSize=11;fontColor=default;labelBackgroundColor=default;endArrow=none;endFill=0;" edge="1" parent="1" source="wluxJrqz4NRpJEGgYyN2-27" target="wluxJrqz4NRpJEGgYyN2-1">
          <mxGeometry relative="1" as="geometry" />
        </mxCell>
        <mxCell id="wluxJrqz4NRpJEGgYyN2-27" value="Password" style="ellipse;whiteSpace=wrap;html=1;fontFamily=Helvetica;fontSize=11;fontColor=default;labelBackgroundColor=default;" vertex="1" parent="1">
          <mxGeometry x="-60" y="260" width="90" height="40" as="geometry" />
        </mxCell>
        <mxCell id="wluxJrqz4NRpJEGgYyN2-31" style="edgeStyle=none;shape=connector;rounded=0;orthogonalLoop=1;jettySize=auto;html=1;exitX=0.5;exitY=0;exitDx=0;exitDy=0;strokeColor=default;align=center;verticalAlign=middle;fontFamily=Helvetica;fontSize=11;fontColor=default;labelBackgroundColor=default;endArrow=none;endFill=0;" edge="1" parent="1" source="wluxJrqz4NRpJEGgYyN2-28" target="wluxJrqz4NRpJEGgYyN2-1">
          <mxGeometry relative="1" as="geometry" />
        </mxCell>
        <mxCell id="wluxJrqz4NRpJEGgYyN2-28" value="Username" style="ellipse;whiteSpace=wrap;html=1;fontFamily=Helvetica;fontSize=11;fontColor=default;labelBackgroundColor=default;" vertex="1" parent="1">
          <mxGeometry x="105" y="350" width="90" height="40" as="geometry" />
        </mxCell>
        <mxCell id="wluxJrqz4NRpJEGgYyN2-37" style="edgeStyle=none;shape=connector;rounded=0;orthogonalLoop=1;jettySize=auto;html=1;exitX=1;exitY=1;exitDx=0;exitDy=0;strokeColor=default;align=center;verticalAlign=middle;fontFamily=Helvetica;fontSize=11;fontColor=default;labelBackgroundColor=default;endArrow=none;endFill=0;" edge="1" parent="1" source="wluxJrqz4NRpJEGgYyN2-32" target="wluxJrqz4NRpJEGgYyN2-2">
          <mxGeometry relative="1" as="geometry" />
        </mxCell>
        <mxCell id="wluxJrqz4NRpJEGgYyN2-32" value="FirstName" style="ellipse;whiteSpace=wrap;html=1;fontFamily=Helvetica;fontSize=11;fontColor=default;labelBackgroundColor=default;" vertex="1" parent="1">
          <mxGeometry x="420" y="170" width="90" height="40" as="geometry" />
        </mxCell>
        <mxCell id="wluxJrqz4NRpJEGgYyN2-38" style="edgeStyle=none;shape=connector;rounded=0;orthogonalLoop=1;jettySize=auto;html=1;exitX=0;exitY=1;exitDx=0;exitDy=0;strokeColor=default;align=center;verticalAlign=middle;fontFamily=Helvetica;fontSize=11;fontColor=default;labelBackgroundColor=default;endArrow=none;endFill=0;" edge="1" parent="1" source="wluxJrqz4NRpJEGgYyN2-33" target="wluxJrqz4NRpJEGgYyN2-2">
          <mxGeometry relative="1" as="geometry" />
        </mxCell>
        <mxCell id="wluxJrqz4NRpJEGgYyN2-33" value="LastName" style="ellipse;whiteSpace=wrap;html=1;fontFamily=Helvetica;fontSize=11;fontColor=default;labelBackgroundColor=default;" vertex="1" parent="1">
          <mxGeometry x="620" y="170" width="90" height="40" as="geometry" />
        </mxCell>
        <mxCell id="wluxJrqz4NRpJEGgYyN2-39" style="edgeStyle=none;shape=connector;rounded=0;orthogonalLoop=1;jettySize=auto;html=1;exitX=1;exitY=0;exitDx=0;exitDy=0;strokeColor=default;align=center;verticalAlign=middle;fontFamily=Helvetica;fontSize=11;fontColor=default;labelBackgroundColor=default;endArrow=none;endFill=0;" edge="1" parent="1" source="wluxJrqz4NRpJEGgYyN2-34" target="wluxJrqz4NRpJEGgYyN2-2">
          <mxGeometry relative="1" as="geometry" />
        </mxCell>
        <mxCell id="wluxJrqz4NRpJEGgYyN2-34" value="Bio" style="ellipse;whiteSpace=wrap;html=1;fontFamily=Helvetica;fontSize=11;fontColor=default;labelBackgroundColor=default;" vertex="1" parent="1">
          <mxGeometry x="400" y="340" width="90" height="40" as="geometry" />
        </mxCell>
        <mxCell id="wluxJrqz4NRpJEGgYyN2-40" style="edgeStyle=none;shape=connector;rounded=0;orthogonalLoop=1;jettySize=auto;html=1;exitX=0.5;exitY=0;exitDx=0;exitDy=0;strokeColor=default;align=center;verticalAlign=middle;fontFamily=Helvetica;fontSize=11;fontColor=default;labelBackgroundColor=default;endArrow=none;endFill=0;" edge="1" parent="1" source="wluxJrqz4NRpJEGgYyN2-36" target="wluxJrqz4NRpJEGgYyN2-2">
          <mxGeometry relative="1" as="geometry" />
        </mxCell>
        <mxCell id="wluxJrqz4NRpJEGgYyN2-36" value="Role" style="ellipse;whiteSpace=wrap;html=1;fontFamily=Helvetica;fontSize=11;fontColor=default;labelBackgroundColor=default;" vertex="1" parent="1">
          <mxGeometry x="620" y="340" width="90" height="40" as="geometry" />
        </mxCell>
        <mxCell id="wluxJrqz4NRpJEGgYyN2-41" value="Location" style="ellipse;whiteSpace=wrap;html=1;fontFamily=Helvetica;fontSize=11;fontColor=default;labelBackgroundColor=default;" vertex="1" parent="1">
          <mxGeometry x="925" y="150" width="90" height="40" as="geometry" />
        </mxCell>
        <mxCell id="wluxJrqz4NRpJEGgYyN2-42" value="Price" style="ellipse;whiteSpace=wrap;html=1;fontFamily=Helvetica;fontSize=11;fontColor=default;labelBackgroundColor=default;" vertex="1" parent="1">
          <mxGeometry x="1130" y="260" width="90" height="40" as="geometry" />
        </mxCell>
        <mxCell id="wluxJrqz4NRpJEGgYyN2-43" value="SurfaceSpace" style="ellipse;whiteSpace=wrap;html=1;fontFamily=Helvetica;fontSize=11;fontColor=default;labelBackgroundColor=default;" vertex="1" parent="1">
          <mxGeometry x="925" y="380" width="90" height="40" as="geometry" />
        </mxCell>
        <mxCell id="wluxJrqz4NRpJEGgYyN2-49" style="edgeStyle=none;shape=connector;rounded=0;orthogonalLoop=1;jettySize=auto;html=1;exitX=1;exitY=0.5;exitDx=0;exitDy=0;strokeColor=default;align=center;verticalAlign=middle;fontFamily=Helvetica;fontSize=11;fontColor=default;labelBackgroundColor=default;endArrow=none;endFill=0;" edge="1" parent="1" source="wluxJrqz4NRpJEGgYyN2-47" target="wluxJrqz4NRpJEGgYyN2-4">
          <mxGeometry relative="1" as="geometry" />
        </mxCell>
        <mxCell id="wluxJrqz4NRpJEGgYyN2-47" value="Description" style="ellipse;whiteSpace=wrap;html=1;fontFamily=Helvetica;fontSize=11;fontColor=default;labelBackgroundColor=default;" vertex="1" parent="1">
          <mxGeometry x="360" y="570" width="90" height="40" as="geometry" />
        </mxCell>
        <mxCell id="wluxJrqz4NRpJEGgYyN2-50" style="edgeStyle=none;shape=connector;rounded=0;orthogonalLoop=1;jettySize=auto;html=1;exitX=0.5;exitY=0;exitDx=0;exitDy=0;strokeColor=default;align=center;verticalAlign=middle;fontFamily=Helvetica;fontSize=11;fontColor=default;labelBackgroundColor=default;endArrow=none;endFill=0;" edge="1" parent="1" source="wluxJrqz4NRpJEGgYyN2-48" target="wluxJrqz4NRpJEGgYyN2-4">
          <mxGeometry relative="1" as="geometry" />
        </mxCell>
        <mxCell id="wluxJrqz4NRpJEGgYyN2-48" value="Image" style="ellipse;whiteSpace=wrap;html=1;fontFamily=Helvetica;fontSize=11;fontColor=default;labelBackgroundColor=default;" vertex="1" parent="1">
          <mxGeometry x="515" y="680" width="90" height="40" as="geometry" />
        </mxCell>
        <mxCell id="wluxJrqz4NRpJEGgYyN2-51" value="Text" style="ellipse;whiteSpace=wrap;html=1;fontFamily=Helvetica;fontSize=11;fontColor=default;labelBackgroundColor=default;" vertex="1" parent="1">
          <mxGeometry x="1005" y="670" width="90" height="40" as="geometry" />
        </mxCell>
      </root>
    </mxGraphModel>
  </diagram>
</mxfile>
